<?xml version="1.0" encoding="UTF-8" standalone="no" ?>
<!DOCTYPE svg PUBLIC "-//W3C//DTD SVG 1.1//EN"
    "http://www.w3.org/Graphics/SVG/1.1/DTD/svg11.dtd">
<svg
    width="100%"
    height="100%"
    viewBox="0 0 64 64"
    version="1.1"
    xmlns="http://www.w3.org/2000/svg"
    xmlns:xlink="http://www.w3.org/1999/xlink"
    xml:space="preserve"
    xmlns:serif="http://www.serif.com/"
    style="fill-rule:evenodd;clip-rule:evenodd;stroke-linecap:round;stroke-linejoin:round;stroke-miterlimit:1.5;"
>
    <g transform="matrix(1,0,0,1,0,-680)">
        <g
            id="Artboard2"
            transform="matrix(0.053333,0,0,0.101587,0,610.920635)"
        >
            <rect x="0" y="680" width="1200" height="630" style="fill:none;" />
            <g id="Inner">
                <g id="Mouth">
                    <g transform="matrix(18.75,0,0,9.84375,0,-6013.75)">
                        <path
                            d="M35,732C35,732 31.792,735.062 29,735"
                            style="fill:none;stroke:black;stroke-width:2.08px;"
                        />
                    </g>
                    <g transform="matrix(-18.75,0,0,9.84375,1200,-6013.75)">
                        <path
                            d="M35,732C35,732 31.792,735.062 29,735"
                            style="fill:none;stroke:black;stroke-width:2.08px;"
                        />
                    </g>
                </g>
                <g id="Eyes">
                    <g transform="matrix(18.75,0,0,9.84375,0,-6023.59375)">
                        <ellipse
                            cx="42.318"
                            cy="729"
                            rx="0.682"
                            ry="2"
                            style="fill:rgb(235,235,235);stroke:black;stroke-width:2.08px;"
                        />
                    </g>
                    <g
                        transform="matrix(18.75,0,0,9.84375,-380.315686,-6023.59375)"
                    >
                        <ellipse
                            cx="42.318"
                            cy="729"
                            rx="0.682"
                            ry="2"
                            style="fill:rgb(235,235,235);stroke:black;stroke-width:2.08px;"
                        />
                    </g>
                </g>
            </g>
            <g transform="matrix(18.75,0,0,9.84375,0,-6013.75)">
                <path
                    d="M32,741C32,741 17.648,742.517 13.648,730.684C9.648,718.851 20,712 20,712C20,712 16.074,700.979 16.574,693.313C16.975,687.152 18.829,684.219 23,684C27.171,683.781 28.429,688.748 29.6,692.001C31.1,696.167 32,709 32,709C32,709 32.9,696.167 34.4,692.001C35.571,688.748 36.829,683.781 41,684C45.171,684.219 47.025,687.152 47.426,693.313C47.926,700.979 44,712 44,712C44,712 54.352,718.851 50.352,730.684C46.352,742.517 32,741 32,741Z"
                    style="fill:none;stroke:black;stroke-width:2.08px;"
                />
            </g>
        </g>
</svg>
