<svg width="16" height="16" viewBox="0 0 16 16" fill="none" aria-hidden="true">
  <path d="M14.5 11.35v1.93a1.29 1.29 0 01-1.4 1.29 12.72 12.72 0 01-5.55-1.97 12.53 12.53 0 01-3.86-3.86A12.72 12.72 0 011.72 2.9 1.29 1.29 0 013 1.5h1.93a1.29 1.29 0 011.29 1.11c.08.61.23 1.21.44 1.79a1.29 1.29 0 01-.29 1.36l-.82.82a10.32 10.32 0 003.86 3.86l.82-.82a1.29 1.29 0 011.36-.29c.58.21 1.18.36 1.79.44a1.29 1.29 0 011.11 1.31v.07z" stroke="currentColor" stroke-width="1.2" stroke-linecap="round" stroke-linejoin="round" fill="none"/>
</svg>
