<svg width="18" height="18" viewBox="0 0 18 18" fill="none" aria-hidden="true">
  <path d="M15.05 2.91A8.46 8.46 0 009.02.48 8.49 8.49 0 001.51 12.7L.47 16.53l3.92-1.03a8.47 8.47 0 004.06 1.03h.01a8.49 8.49 0 008.49-8.49 8.44 8.44 0 00-1.9-5.13zM9.02 15.56a7.04 7.04 0 01-3.59-.98l-.26-.15-2.65.7.71-2.58-.17-.27a7.03 7.03 0 1110.99-5.76 7.04 7.04 0 01-5.03 9.04zm3.86-5.27c-.21-.1-1.25-.62-1.44-.69-.19-.07-.33-.1-.47.11-.14.21-.55.69-.67.83-.12.14-.25.16-.46.05-.21-.1-.9-.33-1.71-1.06-.63-.56-1.06-1.26-1.18-1.47-.12-.21-.01-.32.09-.43.1-.1.22-.25.32-.38.1-.12.14-.21.21-.35.07-.14.04-.26-.02-.37-.05-.1-.47-1.13-.64-1.55-.17-.41-.34-.35-.47-.36h-.4c-.14 0-.36.05-.55.26s-.72.7-.72 1.72.74 2 .84 2.13c.1.14 1.45 2.22 3.52 3.11.49.21.88.34 1.18.43.5.16.95.14 1.31.08.4-.06 1.23-.5 1.4-1 .18-.49.18-.9.12-.99-.05-.09-.19-.14-.4-.24z" fill="currentColor"/>
</svg>
